<svg xmlns="http://www.w3.org/2000/svg" xmlns:xlink="http://www.w3.org/1999/xlink" width="512" zoomAndPan="magnify" viewBox="0 0 384 383.999986" height="512" preserveAspectRatio="xMidYMid meet" version="1.0"><defs><clipPath id="e4f51bbc33"><path d="M 126 127 L 258.851562 127 L 258.851562 260 L 126 260 Z M 126 127 " clip-rule="nonzero"/></clipPath></defs><g clip-path="url(#e4f51bbc33)"><path fill="#ffffff" d="M 258.601562 193.488281 C 258.597656 190.066406 258.328125 186.667969 257.800781 183.289062 C 257.273438 179.910156 256.488281 176.589844 255.449219 173.332031 C 254.40625 170.070312 253.125 166.910156 251.597656 163.851562 C 250.070312 160.789062 248.316406 157.863281 246.339844 155.074219 C 244.390625 152.375 242.253906 149.832031 239.933594 147.445312 C 237.609375 145.0625 235.125 142.859375 232.480469 140.835938 C 229.835938 138.816406 227.058594 137 224.144531 135.386719 C 221.234375 133.769531 218.21875 132.378906 215.105469 131.207031 C 213.503906 130.621094 211.886719 130.097656 210.25 129.636719 C 208.609375 129.175781 206.957031 128.777344 205.289062 128.441406 C 203.617188 128.109375 201.9375 127.839844 200.25 127.632812 C 198.558594 127.429688 196.863281 127.289062 195.164062 127.214844 C 193.464844 127.140625 191.761719 127.132812 190.0625 127.191406 C 188.359375 127.246094 186.664062 127.371094 184.972656 127.558594 C 183.28125 127.746094 181.597656 127.996094 179.925781 128.316406 C 178.253906 128.632812 176.59375 129.011719 174.953125 129.457031 C 173.308594 129.902344 171.6875 130.410156 170.082031 130.980469 C 168.476562 131.550781 166.898438 132.183594 165.34375 132.875 C 163.789062 133.566406 162.261719 134.316406 160.765625 135.125 C 159.265625 135.9375 157.804688 136.800781 156.371094 137.726562 C 154.941406 138.648438 153.550781 139.625 152.195312 140.652344 C 150.839844 141.683594 149.523438 142.761719 148.253906 143.894531 C 146.980469 145.023438 145.753906 146.203125 144.570312 147.429688 C 143.390625 148.652344 142.257812 149.921875 141.175781 151.234375 C 139.019531 153.863281 137.078125 156.636719 135.34375 159.558594 C 133.609375 162.480469 132.105469 165.515625 130.832031 168.664062 C 129.5625 171.8125 128.535156 175.039062 127.75 178.347656 C 126.96875 181.652344 126.441406 184.996094 126.164062 188.382812 C 125.753906 194.277344 126.105469 200.128906 127.214844 205.933594 C 128.320312 211.738281 130.15625 217.304688 132.710938 222.632812 C 133.664062 224.601562 134.625 226.3125 135.507812 227.777344 C 136.328125 229.132812 137.195312 230.460938 138.109375 231.753906 C 139.023438 233.046875 139.984375 234.308594 140.988281 235.535156 C 141.996094 236.757812 143.042969 237.945312 144.132812 239.097656 C 145.222656 240.25 146.351562 241.359375 147.523438 242.425781 C 148.691406 243.496094 149.898438 244.523438 151.144531 245.507812 C 152.386719 246.488281 153.664062 247.425781 154.972656 248.316406 C 156.285156 249.210938 157.625 250.050781 158.996094 250.847656 C 160.367188 251.644531 161.765625 252.386719 163.191406 253.082031 C 164.613281 253.777344 166.0625 254.421875 167.53125 255.011719 C 169.003906 255.605469 170.492188 256.140625 172.003906 256.625 C 173.511719 257.113281 175.035156 257.542969 176.578125 257.917969 C 178.117188 258.292969 179.667969 258.613281 181.230469 258.875 C 182.792969 259.140625 184.363281 259.347656 185.941406 259.5 C 187.519531 259.648438 189.101562 259.746094 190.683594 259.78125 C 192.269531 259.820312 193.855469 259.800781 195.4375 259.726562 C 197.019531 259.652344 198.597656 259.519531 200.171875 259.332031 C 201.746094 259.140625 203.3125 258.898438 204.867188 258.597656 C 206.425781 258.296875 207.96875 257.941406 209.5 257.527344 C 211.027344 257.117188 212.542969 256.652344 214.039062 256.132812 C 215.539062 255.613281 217.015625 255.039062 218.46875 254.414062 C 219.925781 253.785156 221.359375 253.109375 222.765625 252.382812 C 224.175781 251.652344 225.554688 250.875 226.90625 250.046875 C 228.257812 249.21875 229.578125 248.34375 230.867188 247.421875 C 232.15625 246.5 233.410156 245.535156 234.632812 244.523438 C 235.851562 243.511719 237.035156 242.457031 238.179688 241.359375 C 239.324219 240.261719 240.425781 239.125 241.488281 237.949219 C 242.550781 236.773438 243.570312 235.5625 244.546875 234.3125 C 245.523438 233.0625 246.453125 231.78125 247.335938 230.464844 C 248.222656 229.152344 249.058594 227.804688 249.84375 226.429688 C 250.632812 225.054688 251.371094 223.652344 252.058594 222.222656 C 252.742188 220.796875 253.378906 219.34375 253.960938 217.871094 C 254.546875 216.394531 255.074219 214.902344 255.550781 213.390625 L 255.640625 213.28125 C 255.949219 212.929688 256.046875 212.527344 255.941406 212.074219 C 256.738281 209.359375 257.355469 206.601562 257.792969 203.800781 C 258.320312 200.382812 258.589844 196.945312 258.601562 193.488281 Z M 247.179688 161.425781 C 251.09375 168.140625 253.703125 175.328125 255 182.992188 C 254.917969 183.078125 254.847656 183.175781 254.785156 183.277344 C 251.945312 188.207031 248.515625 192.6875 244.5 196.714844 C 240.480469 200.746094 236.011719 204.1875 231.089844 207.046875 C 225.773438 210.105469 220.132812 212.359375 214.167969 213.796875 C 208.203125 215.238281 202.160156 215.808594 196.03125 215.511719 C 189.046875 215.175781 182.296875 213.746094 175.777344 211.226562 C 178.191406 205.746094 181.597656 200.972656 185.992188 196.90625 C 188.683594 197.757812 191.429688 198.371094 194.226562 198.742188 C 197.023438 199.113281 199.832031 199.242188 202.652344 199.121094 C 205.472656 199.003906 208.257812 198.640625 211.015625 198.03125 C 213.769531 197.421875 216.453125 196.582031 219.0625 195.503906 C 221.535156 194.464844 223.902344 193.222656 226.164062 191.78125 C 228.429688 190.335938 230.554688 188.714844 232.542969 186.914062 C 234.53125 185.113281 236.351562 183.15625 238.007812 181.046875 C 239.664062 178.933594 241.132812 176.699219 242.410156 174.339844 C 244.625 170.265625 246.214844 165.960938 247.179688 161.425781 Z M 238.285156 149.597656 C 240.78125 152.214844 243.03125 155.027344 245.042969 158.03125 C 244.679688 160.4375 244.128906 162.804688 243.386719 165.125 C 242.644531 167.445312 241.722656 169.691406 240.621094 171.863281 C 239.519531 174.039062 238.253906 176.109375 236.820312 178.078125 C 235.386719 180.050781 233.804688 181.894531 232.074219 183.609375 C 231.347656 184.332031 230.59375 185.03125 229.816406 185.699219 C 229.832031 167.929688 225.871094 149.328125 212.992188 136.308594 C 211.386719 134.683594 209.667969 133.191406 207.835938 131.832031 C 213.640625 133.308594 219.132812 135.554688 224.308594 138.574219 C 229.484375 141.59375 234.144531 145.269531 238.285156 149.597656 Z M 200.332031 130.410156 C 215.859375 138.222656 223.871094 154.921875 226.199219 171.484375 C 226.90625 176.8125 227.195312 182.160156 227.066406 187.53125 C 227.066406 187.636719 227.074219 187.746094 227.097656 187.851562 C 222.105469 191.484375 216.597656 193.976562 210.570312 195.328125 C 209.761719 174.625 203.925781 152.9375 187.703125 138.929688 C 184.40625 136.078125 180.796875 133.699219 176.875 131.792969 C 184.609375 129.875 192.429688 129.414062 200.332031 130.410156 Z M 166.03125 135.554688 C 168.257812 134.539062 170.535156 133.65625 172.867188 132.910156 C 172.96875 132.988281 173.082031 133.054688 173.199219 133.101562 C 191.652344 140.59375 202.183594 159.339844 205.902344 178.066406 C 207.035156 183.945312 207.6875 189.875 207.859375 195.859375 C 206.632812 196.054688 205.398438 196.207031 204.15625 196.304688 C 198.476562 196.742188 192.90625 196.140625 187.449219 194.488281 C 187.371094 194.320312 187.265625 194.167969 187.132812 194.039062 C 187.195312 193.828125 187.207031 193.609375 187.171875 193.390625 C 185.816406 185.125 184.371094 176.761719 181.230469 168.953125 C 179.722656 164.988281 177.660156 161.332031 175.046875 157.992188 C 172.433594 154.648438 169.382812 151.769531 165.894531 149.351562 C 162.066406 146.851562 158.058594 144.679688 153.875 142.835938 C 157.65625 139.957031 161.707031 137.53125 166.03125 135.554688 Z M 130.214844 207.3125 C 129.558594 204.386719 129.117188 201.425781 128.886719 198.4375 C 128.6875 195.917969 128.640625 193.398438 128.742188 190.875 C 128.84375 188.351562 129.097656 185.84375 129.496094 183.351562 C 129.898438 180.855469 130.449219 178.394531 131.144531 175.96875 C 131.839844 173.539062 132.679688 171.164062 133.65625 168.835938 C 134.636719 166.507812 135.753906 164.246094 137.003906 162.050781 C 138.253906 159.859375 139.628906 157.746094 141.132812 155.714844 C 142.636719 153.6875 144.253906 151.753906 145.988281 149.917969 C 147.722656 148.082031 149.558594 146.355469 151.496094 144.738281 C 156.332031 146.820312 160.925781 149.339844 165.28125 152.296875 C 147.980469 162.234375 135.523438 179.890625 131.417969 199.363281 C 130.863281 201.992188 130.460938 204.640625 130.214844 207.3125 Z M 143.203125 233.921875 C 138.679688 228.441406 135.183594 222.367188 132.707031 215.707031 C 132.0625 196.511719 140.136719 177.460938 153.949219 164.175781 C 157.90625 160.375 162.273438 157.121094 167.050781 154.421875 C 167.234375 154.320312 167.386719 154.183594 167.507812 154.011719 C 169.261719 155.441406 170.863281 157.03125 172.304688 158.777344 C 175.226562 162.449219 177.480469 166.492188 179.066406 170.910156 C 179.054688 170.917969 179.042969 170.921875 179.03125 170.929688 C 177.601562 171.808594 176.210938 172.746094 174.855469 173.734375 C 173.5 174.722656 172.183594 175.761719 170.90625 176.851562 C 169.628906 177.941406 168.398438 179.078125 167.207031 180.261719 C 166.019531 181.449219 164.878906 182.675781 163.785156 183.949219 C 162.691406 185.222656 161.644531 186.535156 160.652344 187.886719 C 159.660156 189.238281 158.71875 190.628906 157.832031 192.054688 C 156.945312 193.476562 156.113281 194.933594 155.339844 196.425781 C 154.566406 197.914062 153.847656 199.429688 153.191406 200.972656 C 152.53125 202.515625 151.933594 204.082031 151.398438 205.671875 C 150.859375 207.261719 150.382812 208.871094 149.96875 210.496094 C 149.554688 212.125 149.203125 213.765625 148.917969 215.417969 C 148.628906 217.070312 148.40625 218.734375 148.246094 220.402344 C 148.085938 222.074219 147.988281 223.75 147.957031 225.425781 C 147.925781 227.105469 147.957031 228.78125 148.054688 230.457031 C 148.152344 232.132812 148.316406 233.800781 148.539062 235.464844 C 148.765625 237.128906 149.054688 238.78125 149.410156 240.421875 C 147.1875 238.398438 145.121094 236.234375 143.203125 233.921875 Z M 174.839844 254.648438 C 166.769531 252.335938 159.445312 248.566406 152.867188 243.347656 C 152.871094 243.210938 152.855469 243.078125 152.824219 242.945312 C 152.390625 241.339844 152.027344 239.71875 151.722656 238.085938 C 151.421875 236.449219 151.1875 234.804688 151.015625 233.148438 C 150.84375 231.496094 150.738281 229.835938 150.699219 228.175781 C 150.660156 226.511719 150.6875 224.851562 150.777344 223.191406 C 150.871094 221.53125 151.03125 219.875 151.253906 218.226562 C 151.476562 216.578125 151.765625 214.941406 152.121094 213.316406 C 152.476562 211.691406 152.894531 210.085938 153.375 208.492188 C 153.855469 206.902344 154.398438 205.332031 155.007812 203.78125 C 155.613281 202.234375 156.28125 200.710938 157.007812 199.21875 C 157.734375 197.722656 158.519531 196.257812 159.363281 194.824219 C 160.207031 193.390625 161.105469 191.992188 162.0625 190.632812 C 163.015625 189.269531 164.023438 187.949219 165.082031 186.667969 C 166.144531 185.386719 167.253906 184.148438 168.410156 182.953125 C 169.570312 181.761719 170.773438 180.613281 172.019531 179.515625 C 173.269531 178.417969 174.5625 177.371094 175.894531 176.375 C 177.226562 175.382812 178.59375 174.441406 180 173.554688 C 180.75 175.832031 181.378906 178.152344 181.929688 180.460938 C 183 184.972656 183.78125 189.542969 184.53125 194.121094 C 184.550781 194.234375 184.585938 194.34375 184.628906 194.453125 C 182.925781 195.996094 181.34375 197.660156 179.882812 199.445312 C 178.425781 201.226562 177.109375 203.105469 175.929688 205.085938 C 174.753906 207.0625 173.730469 209.117188 172.859375 211.25 C 171.988281 213.382812 171.28125 215.566406 170.738281 217.804688 C 170.195312 220.039062 169.816406 222.304688 169.613281 224.597656 C 169.40625 226.890625 169.371094 229.1875 169.507812 231.484375 C 169.644531 233.785156 169.949219 236.058594 170.425781 238.3125 C 170.902344 240.566406 171.542969 242.769531 172.351562 244.925781 C 173.78125 248.675781 175.660156 252.179688 177.988281 255.445312 C 176.933594 255.203125 175.882812 254.945312 174.839844 254.648438 Z M 244.152344 230.285156 C 242.441406 232.699219 240.570312 234.984375 238.539062 237.140625 C 236.507812 239.292969 234.335938 241.296875 232.027344 243.148438 C 229.714844 245 227.285156 246.679688 224.742188 248.191406 C 222.195312 249.703125 219.554688 251.027344 216.824219 252.171875 C 214.09375 253.3125 211.292969 254.257812 208.429688 255.007812 C 205.566406 255.761719 202.664062 256.308594 199.722656 256.652344 C 196.78125 256.996094 193.832031 257.136719 190.871094 257.066406 C 187.914062 257 184.972656 256.726562 182.050781 256.246094 C 179.824219 253.550781 177.949219 250.632812 176.425781 247.488281 C 174.898438 244.34375 173.765625 241.0625 173.023438 237.648438 C 175.902344 238.53125 178.824219 239.246094 181.785156 239.789062 C 184.746094 240.335938 187.726562 240.710938 190.730469 240.910156 C 193.734375 241.109375 196.742188 241.136719 199.746094 240.992188 C 202.753906 240.847656 205.742188 240.527344 208.714844 240.035156 C 211.683594 239.542969 214.617188 238.882812 217.511719 238.050781 C 220.402344 237.222656 223.242188 236.226562 226.019531 235.070312 C 228.796875 233.910156 231.5 232.597656 234.128906 231.125 C 236.757812 229.65625 239.289062 228.039062 241.730469 226.277344 C 244.878906 223.980469 247.84375 221.464844 250.617188 218.730469 C 248.867188 222.808594 246.710938 226.65625 244.152344 230.28125 Z M 253.050781 212.121094 C 251.847656 213.527344 250.597656 214.886719 249.296875 216.199219 C 248 217.511719 246.652344 218.773438 245.257812 219.988281 C 243.863281 221.199219 242.425781 222.359375 240.949219 223.464844 C 239.46875 224.574219 237.949219 225.625 236.394531 226.617188 C 234.835938 227.613281 233.242188 228.550781 231.617188 229.425781 C 229.992188 230.304688 228.335938 231.117188 226.648438 231.875 C 224.960938 232.628906 223.25 233.320312 221.511719 233.945312 C 219.773438 234.574219 218.015625 235.136719 216.234375 235.636719 C 214.457031 236.132812 212.660156 236.566406 210.847656 236.929688 C 209.039062 237.296875 207.214844 237.59375 205.382812 237.824219 C 203.546875 238.054688 201.707031 238.214844 199.863281 238.308594 C 198.019531 238.40625 196.171875 238.429688 194.324219 238.390625 C 192.476562 238.347656 190.632812 238.238281 188.792969 238.058594 C 186.957031 237.878906 185.125 237.632812 183.304688 237.320312 C 181.484375 237.007812 179.675781 236.625 177.882812 236.179688 C 176.089844 235.730469 174.316406 235.21875 172.5625 234.640625 C 172.539062 234.632812 172.511719 234.628906 172.488281 234.621094 C 172.386719 233.902344 172.292969 233.175781 172.230469 232.449219 C 171.667969 226.027344 172.507812 219.792969 174.753906 213.75 C 177.828125 214.941406 180.972656 215.898438 184.1875 216.628906 C 187.402344 217.359375 190.65625 217.851562 193.941406 218.105469 C 197.226562 218.359375 200.515625 218.375 203.804688 218.152344 C 207.09375 217.925781 210.347656 217.464844 213.570312 216.765625 C 217.867188 215.800781 222.027344 214.429688 226.050781 212.648438 C 230.078125 210.867188 233.890625 208.710938 237.492188 206.179688 C 241.09375 203.648438 244.414062 200.792969 247.457031 197.609375 C 250.496094 194.425781 253.199219 190.980469 255.5625 187.265625 C 255.757812 189.332031 255.859375 191.40625 255.867188 193.488281 C 255.847656 199.839844 254.910156 206.046875 253.046875 212.117188 Z M 253.050781 212.121094 " fill-opacity="1" fill-rule="nonzero"/></g></svg>